<?xml version="1.0" standalone="no"?>
<!DOCTYPE svg PUBLIC "-//W3C//DTD SVG 20010904//EN"
 "http://www.w3.org/TR/2001/REC-SVG-20010904/DTD/svg10.dtd">
<svg version="1.0" xmlns="http://www.w3.org/2000/svg"
 width="260.000000pt" height="260.000000pt" viewBox="0 0 260.000000 260.000000"
 preserveAspectRatio="xMidYMid meet">
<metadata>
Created by potrace 1.11, written by Peter Selinger 2001-2013
</metadata>
<g transform="translate(0.000000,260.000000) scale(0.100000,-0.100000)"
fill="#000000" stroke="none">
<path d="M1175 2593 c-399 -46 -744 -256 -962 -586 -141 -216 -213 -471 -208
-736 4 -156 33 -310 85 -440 53 -134 158 -311 185 -311 22 0 20 6 -36 93 -161
251 -230 549 -195 837 11 90 55 257 90 339 158 374 494 655 891 745 500 114
1037 -99 1323 -526 90 -133 177 -340 196 -463 3 -16 8 -50 13 -75 13 -78 7
-309 -10 -400 -50 -257 -170 -483 -352 -665 -178 -179 -398 -297 -653 -351
-107 -22 -314 -26 -431 -8 -106 16 -275 70 -364 115 -55 27 -77 30 -77 9 0
-24 266 -128 371 -145 24 -4 53 -9 64 -12 11 -2 72 -7 135 -10 637 -32 1195
401 1336 1037 25 112 27 379 4 492 -56 274 -173 493 -364 683 -248 247 -542
372 -885 379 -69 1 -139 1 -156 -1z"/>
<path d="M1353 2193 c-44 -4 -45 -6 -58 -70 -3 -17 -13 -37 -21 -44 -17 -14
-18 -5 -3 23 10 19 9 20 -12 13 -13 -4 -33 -7 -44 -6 -103 8 -185 8 -210 0
-21 -7 -40 -27 -63 -64 -21 -34 -40 -55 -51 -55 -10 0 -24 -7 -32 -16 -7 -8
-25 -22 -40 -30 -25 -12 -27 -17 -19 -46 6 -17 7 -48 4 -68 l-6 -36 -60 2
c-43 2 -65 -2 -79 -14 -18 -16 -18 -16 0 -37 11 -11 21 -33 23 -49 3 -26 8
-30 38 -34 45 -5 47 -8 24 -33 -15 -17 -26 -20 -61 -14 -24 3 -60 1 -82 -6
-31 -9 -54 -9 -96 -1 -48 10 -60 9 -81 -4 -13 -9 -24 -21 -24 -28 0 -6 -19
-20 -42 -30 -38 -18 -51 -21 -103 -25 -20 -2 -20 -2 1 -20 12 -9 31 -35 42
-57 24 -48 50 -61 119 -60 l52 1 -21 -22 c-15 -16 -33 -23 -60 -23 -28 0 -40
-5 -45 -17 -3 -10 -15 -28 -25 -39 -19 -21 -19 -22 8 -43 15 -11 34 -21 43
-21 10 0 21 -4 26 -9 6 -5 28 -12 51 -14 32 -4 57 2 115 30 41 20 90 36 109
37 40 3 126 -16 123 -27 -14 -38 12 -51 71 -35 36 10 53 9 97 -6 30 -9 63 -25
74 -34 33 -28 124 -147 135 -178 33 -85 23 -184 -22 -226 -26 -24 -28 -29 -12
-35 9 -3 36 -1 60 5 28 8 52 8 67 3 15 -6 28 -6 33 -1 6 6 32 6 64 1 59 -10
76 -6 47 10 -63 36 -89 98 -88 213 0 47 5 66 27 98 58 83 143 95 238 34 58
-37 60 -38 128 -31 52 5 79 3 106 -8 67 -26 116 -40 145 -39 48 1 80 42 35 42
-30 1 -60 24 -53 41 2 8 6 26 9 41 4 23 0 27 -28 32 -36 7 -68 39 -60 60 8 20
77 30 104 16 13 -7 40 -14 61 -16 34 -4 39 -2 39 16 0 11 7 23 16 27 9 3 13
13 11 22 -3 9 -10 31 -16 49 l-10 33 62 -1 c81 -1 106 3 140 20 39 19 35 69
-7 89 -16 7 -31 22 -33 32 -3 10 -25 30 -49 44 -55 32 -65 50 -48 84 19 35 17
48 -6 61 -11 6 -20 17 -20 24 0 18 -42 25 -106 19 -46 -5 -53 -3 -63 16 -10
18 -8 26 8 48 12 14 21 33 21 41 0 9 6 23 14 31 8 9 18 28 21 43 6 22 3 29
-11 34 -11 3 -33 13 -49 21 -25 12 -38 13 -70 4 -53 -14 -65 -14 -65 3 0 22
-59 66 -89 66 -17 0 -37 10 -52 26 -18 19 -32 25 -59 23 -49 -4 -96 17 -147
63 -24 21 -48 37 -55 36 -7 -1 -32 -3 -55 -5z m367 -357 c0 -13 -73 -86 -86
-86 -15 0 11 48 39 72 36 31 47 34 47 14z m-586 -55 c20 -22 19 -102 -1 -108
-13 -5 -41 44 -37 65 1 6 2 23 3 37 1 30 12 32 35 6z m-67 -64 c3 -22 2 -37
-4 -37 -15 0 -36 57 -29 76 9 25 25 5 33 -39z m196 10 c15 -10 27 -24 27 -33
0 -9 -3 -14 -7 -12 -5 2 -25 12 -45 21 -24 11 -38 24 -38 35 0 26 12 36 25 20
5 -7 22 -21 38 -31z m138 16 c42 -20 53 -47 47 -118 l-3 -40 -24 45 c-13 25
-31 54 -41 65 -20 22 -35 65 -24 65 4 0 25 -8 45 -17z m339 -17 c0 -11 -4 -27
-8 -34 -12 -18 -126 -72 -130 -61 -2 5 8 30 23 55 39 67 115 94 115 40z m-175
-70 c-10 -43 -22 -66 -42 -82 -35 -28 -39 -16 -23 61 8 37 20 64 38 80 36 33
44 15 27 -59z m-625 29 c0 -8 12 -21 28 -29 32 -18 26 -20 -16 -5 -24 8 -31
16 -30 34 2 25 18 24 18 0z m288 -6 c17 -6 37 -21 45 -33 13 -19 13 -27 1 -55
-12 -30 -16 -32 -31 -20 -15 13 -33 48 -47 97 -8 26 -9 25 32 11z m-149 -84
c17 -20 31 -38 31 -41 0 -10 -68 47 -74 62 -10 25 11 15 43 -21z m305 -5 c52
-20 72 -109 35 -162 -32 -46 -105 -118 -120 -118 -18 0 -4 198 18 250 19 42
26 46 67 30z m-166 -45 c14 -12 25 -75 13 -75 -12 0 -47 42 -65 77 l-16 33 27
-12 c16 -6 34 -17 41 -23z m479 19 c18 -3 37 -12 43 -19 16 -19 -42 -72 -94
-87 -23 -6 -48 -16 -56 -22 -30 -22 -82 -48 -86 -43 -6 6 26 82 51 123 23 39
61 63 89 58 12 -2 35 -7 53 -10z m-689 -74 c44 -41 55 -67 25 -55 -10 3 -38
11 -63 16 -65 14 -73 21 -61 52 15 39 49 35 99 -13z m119 1 c11 -5 38 -30 61
-55 30 -33 42 -54 42 -76 0 -16 -3 -30 -6 -30 -13 0 -133 107 -139 125 -16 45
-15 54 5 50 10 -2 27 -8 37 -14z m-364 -29 c24 -11 47 -24 50 -28 3 -5 -28 -8
-68 -6 -64 3 -76 7 -98 30 l-26 27 48 -2 c27 0 69 -10 94 -21z m75 -7 c-3 -3
-9 2 -12 12 -6 14 -5 15 5 6 7 -7 10 -15 7 -18z m970 -30 c26 -14 54 -25 62
-26 8 0 3 -4 -12 -9 -27 -8 -67 -2 -158 22 l-44 12 29 12 c44 19 71 17 123
-11z m191 4 c17 -6 31 -15 31 -21 0 -6 -7 -8 -15 -5 -8 4 -17 2 -20 -3 -11
-18 -43 -10 -59 15 -16 24 -16 25 7 25 13 0 38 -5 56 -11z m-986 -14 c34 -14
67 -68 48 -79 -11 -7 -101 38 -136 68 l-30 26 41 0 c23 0 57 -7 77 -15z m-186
-26 c15 -6 36 -12 45 -14 24 -5 56 -24 41 -25 -26 0 -158 31 -167 40 -14 14
45 13 81 -1z m906 -10 c20 -5 37 -12 37 -14 0 -12 -49 -27 -102 -32 -33 -2
-89 -17 -126 -33 -37 -16 -68 -27 -70 -25 -2 2 8 21 22 42 18 26 42 44 78 59
52 22 85 22 161 3z m-526 -95 c-2 -3 -25 6 -50 18 -43 21 -47 26 -47 58 l1 35
50 -54 c27 -29 48 -55 46 -57z m-488 82 c26 -14 60 -46 48 -46 -6 0 -76 46
-86 56 -9 9 11 3 38 -10z m691 -42 c-13 -32 -77 -114 -90 -114 -4 0 -7 8 -5
18 2 9 4 22 4 28 1 12 93 105 98 100 2 -2 -1 -16 -7 -32z m-505 -10 c88 -28
96 -34 127 -77 l21 -29 -21 11 c-12 6 -25 17 -29 24 -17 26 -42 37 -99 43 -43
4 -66 12 -84 30 -32 31 -16 31 85 -2z m1030 16 c3 -6 -1 -7 -9 -4 -18 7 -21
14 -7 14 6 0 13 -4 16 -10z m-40 -10 c3 -5 -3 -10 -14 -10 -11 0 -23 5 -26 10
-3 6 3 10 14 10 11 0 23 -4 26 -10z m-835 -41 c0 -24 -2 -24 -29 5 l-22 23 25
-4 c17 -4 26 -12 26 -24z m620 15 c8 -1 27 -5 42 -8 23 -5 27 -11 25 -36 -2
-37 -19 -38 -64 -4 -18 14 -50 28 -71 31 l-37 6 30 13 c17 7 37 11 45 7 8 -3
22 -7 30 -9z m-506 -59 c33 -29 41 -43 46 -85 4 -28 5 -64 2 -80 l-4 -29 -42
50 c-55 68 -76 108 -76 147 0 43 23 42 74 -3z m483 -8 c58 -39 -1 -67 -151
-71 l-94 -3 11 24 c11 25 61 60 105 73 38 11 91 2 129 -23z m123 -92 c16 -8
33 -15 37 -14 38 6 43 -13 8 -29 -36 -17 -50 -15 -35 3 21 25 5 27 -34 5 -49
-27 -99 -26 -144 5 l-37 25 40 1 c22 1 51 5 65 9 40 13 69 11 100 -5z"/>
<path d="M905 919 c-9 -14 29 -19 152 -19 95 0 124 3 120 13 -3 9 -40 12 -136
13 -72 0 -134 -3 -136 -7z"/>
<path d="M1334 919 c-3 -6 -4 -12 -2 -14 2 -2 48 -7 103 -10 92 -6 215 -19
290 -31 70 -11 222 -56 259 -77 23 -12 42 -30 44 -41 5 -24 -31 -60 -85 -86
-109 -51 -233 -61 -573 -44 -213 10 -376 11 -451 2 -142 -18 -380 -85 -431
-123 l-23 -17 25 5 c14 3 65 17 115 31 133 38 133 32 1 -29 -190 -87 -436
-232 -436 -257 0 -10 23 2 95 47 118 76 378 192 568 255 65 21 102 22 192 4
59 -13 288 -20 445 -14 305 10 676 113 736 205 64 98 -168 167 -641 190 -60 3
-136 8 -167 10 -33 2 -60 0 -64 -6z m696 -91 c118 -30 161 -65 130 -103 -13
-15 -91 -54 -135 -66 -30 -8 -30 -8 -9 9 26 21 44 53 40 74 -5 34 -52 68 -145
104 l-36 14 40 -6 c22 -4 74 -15 115 -26z m-555 -244 c50 -4 101 -6 115 -6
l25 1 -25 -11 c-22 -9 -311 -12 -425 -3 -22 1 -62 3 -89 4 -27 0 -46 4 -42 8
20 20 208 23 441 7z"/>
<path d="M682 429 c-90 -43 -161 -83 -158 -88 3 -5 33 4 67 20 108 53 246 109
266 109 11 0 55 -9 99 -21 117 -30 327 -31 381 0 11 6 -17 9 -83 8 -54 0 -121
3 -149 7 -27 4 -65 10 -83 12 -19 3 -55 12 -80 20 -26 7 -58 13 -72 13 -14 0
-98 -36 -188 -80z"/>
</g>
</svg>
